{"title":"Without You (Soch) - Vaibhav Saxena Ft. Hardy Sandhu - Full 1080","uid":12367807,"size":30746294,"categoryP":"video","categoryS":"music_videos","magnet":"?xt=urn:btih:7f18772f55bfbb525f34f2a16126c5e31042bbab&amp;dn=Without+You+%28Soch%29+-+Vaibhav+Saxena+Ft.+Hardy+Sandhu+-+Full+1080&amp;tr=udp%3A%2F%2Ftracker.openbittorrent.com%3A80&amp;tr=udp%3A%2F%2Fopen.demonii.com%3A1337&amp;tr=udp%3A%2F%2Ftracker.coppersurfer.tk%3A6969&amp;tr=udp%3A%2F%2Fexodus.desync.com%3A6969","seeders":0,"leechers":0,"uploader":"Aainul","files":5,"time":1441624681,"description":"Seeding From High Speed Seedbox\n\n\nWithout You (Soch) - Vaibhav Saxena Ft. Hardy Sandhu - Full 1080p HD - Team truHD HEVC\n\nSource: WEB-DL\n\nEncoder: truHD HEVC Encoding Team\n\nEncoded File Info:\n\nGeneral\n\nFormat : MPEG-4\nFormat profile : Base Media\nCodec ID : iso4\nFile size : 29.1 MiB\nDuration : 3mn 19s\nOverall bit rate : 1 224 Kbps\nEncoded date : UTC 2015-08-27 13:44:49\nTagged date : UTC 2015-08-27 13:44:49\n\nVideo\nID : 1\nFormat : HEVC\nFormat/Info : High Efficiency Video Coding\nCodec ID : hvc1\nCodec ID/Info : High Efficiency Video Coding\nDuration : 3mn 19s\nBit rate : 1 029 Kbps\nMaximum bit rate : 4 587 Kbps\nWidth : 1 920 pixels\nHeight : 1 080 pixels\nDisplay aspect ratio : 16:9\nFrame rate mode : Constant\nFrame rate : 25.000 fps\nBits/(Pixel*Frame) : 0.020\nStream size : 24.5 MiB (84%)\nTitle : Video\nEncoded date : UTC 2015-08-27 13:44:49\nTagged date : UTC 2015-08-27 13:44:51\n\nAudio\nID : 2\nFormat : AC-3\nFormat/Info : Audio Coding 3\nMode extension : CM (complete main)\nFormat settings, Endianness : Big\nCodec ID : ac-3\nDuration : 3mn 19s\nBit rate mode : Constant\nBit rate : 192 Kbps\nMaximum bit rate : 201 Kbps\nChannel(s) : 6 channels\nChannel positions : Front: L C R, Side: L R, LFE\nSampling rate : 44.1 KHz\nBit depth : 16 bits\nCompression mode : Lossy\nStream size : 4.57 MiB (16%)\nTitle : \nEncoded date : UTC 2015-08-27 13:44:51\nTagged date : UTC 2015-08-27 13:44:51\n\n\nScreenShots:\n &lt;a href=&quot;\nhttps://yuq.me/users/36/459/4UMe1LkqgP.jpg&quot; rel=&quot;nofollow&quot; target=&quot;_NEW&quot;&gt;\nhttps://yuq.me/users/36/459/4UMe1LkqgP.jpg&lt;/a&gt;\n\nLike Us On FB And Request Accepted\n\nKickAssTorrents:  &lt;a href=&quot;\nhttps://kat.cr/user/Aainul/&quot; rel=&quot;nofollow&quot; target=&quot;_NEW&quot;&gt;\nhttps://kat.cr/user/Aainul/&lt;/a&gt;\nGloTorrents:  &lt;a href=&quot;\nhttps://glodls.to/user/Aainul&quot; rel=&quot;nofollow&quot; target=&quot;_NEW&quot;&gt;\nhttps://glodls.to/user/Aainul&lt;/a&gt;\nThePirateBay:  &lt;a href=&quot;\nhttps://thepiratebay.vg/user/Aainul/&quot; rel=&quot;nofollow&quot; target=&quot;_NEW&quot;&gt;\nhttps://thepiratebay.vg/user/Aainul/&lt;/a&gt;\n1337x Torrents:  &lt;a href=&quot;\nhttp://1337.to/user/Aainul/&quot; rel=&quot;nofollow&quot; target=&quot;_NEW&quot;&gt;\nhttp://1337.to/user/Aainul/&lt;/a&gt;\n\n\nNote: All Videos Uploaded By Me Are For Review Purpose. If You Like IT, Google IT And Buy IT - Thanks\n\n\nKing Regards\ntruHD HEVC Team\n\nShare Among Friends And Relatives","torrent":{"xt":"urn:btih:7f18772f55bfbb525f34f2a16126c5e31042bbab","amp;dn":"Without+You+%28Soch%29+-+Vaibhav+Saxena+Ft.+Hardy+Sandhu+-+Full+1080","amp;tr":["udp%3A%2F%2Ftracker.openbittorrent.com%3A80","udp%3A%2F%2Fopen.demonii.com%3A1337","udp%3A%2F%2Ftracker.coppersurfer.tk%3A6969","udp%3A%2F%2Fexodus.desync.com%3A6969"],"infoHash":"7f18772f55bfbb525f34f2a16126c5e31042bbab","infoHashBuffer":{"type":"Buffer","data":[127,24,119,47,85,191,187,82,95,52,242,161,97,38,197,227,16,66,187,171]},"announce":[],"urlList":[]}}